<svg xmlns="http://www.w3.org/2000/svg" viewBox="0 0 28.54 17.49"><defs><style>.cls-1{fill:#fff;}</style></defs><g id="Capa_2" data-name="Capa 2"><g id="Capa_1-2" data-name="Capa 1"><path class="cls-1" d="M14.28,0c-.79.08-1.58.1-2.35.23A16.07,16.07,0,0,0,.08,8.5a.52.52,0,0,0,0,.56,16.1,16.1,0,0,0,16.52,8.25A15.9,15.9,0,0,0,28.45,9.08a.53.53,0,0,0,0-.59C25.3,3,20.52.3,14.28,0Zm0,15.37a6.6,6.6,0,1,1,6.59-6.58A6.59,6.59,0,0,1,14.28,15.37Z"/><path class="cls-1" d="M14.28,4.4a4.38,4.38,0,1,0,4.37,4.37A4.35,4.35,0,0,0,14.28,4.4Z"/></g></g></svg>