<svg xmlns="http://www.w3.org/2000/svg" viewBox="0 0 28 28"><defs><style>.cls-1{fill:#fdfcfd;}</style></defs><g id="Capa_2" data-name="Capa 2"><g id="Capa_1-2" data-name="Capa 1"><path class="cls-1" d="M15,0c.51.07,1,.11,1.54.22A13.22,13.22,0,0,1,27.11,10,.83.83,0,0,1,26.58,11a.81.81,0,0,1-1-.63,11.77,11.77,0,0,0-22-2.12c0,.1-.09.21-.16.37.22-.09.39-.17.57-.23a.82.82,0,0,1,1.08.41.81.81,0,0,1-.44,1.09c-.81.35-1.62.7-2.44,1a.79.79,0,0,1-1.09-.48L.11,8.2A1.39,1.39,0,0,0,0,8V7.55l.05-.06a.78.78,0,0,1,.77-.55.81.81,0,0,1,.79.57c.07.17.15.34.24.56.07-.14.12-.23.16-.33A13.29,13.29,0,0,1,11.49.28C12.1.14,12.73.09,13.35,0Z"/><path class="cls-1" d="M14,23.05a2.45,2.45,0,0,1-2.39-2,.51.51,0,0,0-.81-.34,2.46,2.46,0,0,1-3.43-3.43A.51.51,0,0,0,7,16.43a2.46,2.46,0,0,1,0-4.85.51.51,0,0,0,.34-.8,2.46,2.46,0,0,1,3.46-3.42A.5.5,0,0,0,11.57,7a2.46,2.46,0,0,1,4.87,0,.51.51,0,0,0,.77.31,2.46,2.46,0,0,1,3.44,3.43.52.52,0,0,0,.33.79,2.46,2.46,0,0,1,0,4.86.51.51,0,0,0-.31.79,2.46,2.46,0,0,1-3.43,3.43.51.51,0,0,0-.8.34A2.44,2.44,0,0,1,14,23.05ZM9.45,8.52A.88.88,0,0,0,8.61,9a.79.79,0,0,0,.1.88,2.2,2.2,0,0,0,.26.27.89.89,0,0,1,.19,1.23,7,7,0,0,0-.35.79c-.37,1-.36,1-1.41,1a.82.82,0,0,0,0,1.63h.36a.86.86,0,0,1,.94.7,3.32,3.32,0,0,0,.32.83,1.17,1.17,0,0,1-.26,1.75.77.77,0,0,0,0,1.12.8.8,0,0,0,1.13,0c.13-.11.25-.24.38-.36a.81.81,0,0,1,.91-.15l1.46.61a.79.79,0,0,1,.54.75c0,.17,0,.34,0,.51a.82.82,0,0,0,1.63,0c0-.16,0-.33,0-.49a.83.83,0,0,1,.56-.79c.47-.19.94-.38,1.41-.59a.85.85,0,0,1,1,.15c.13.12.24.25.38.36a.81.81,0,0,0,1.11,0,.83.83,0,0,0,0-1.12L19,17.81a.85.85,0,0,1-.17-1.07c.19-.41.37-.83.52-1.26a.86.86,0,0,1,.9-.65h.41a.82.82,0,0,0,0-1.63h-.46a.84.84,0,0,1-.81-.58q-.27-.69-.57-1.38a.84.84,0,0,1,.16-1c.12-.13.25-.24.36-.38a.81.81,0,0,0-.05-1.09.83.83,0,0,0-1.1-.06c-.11.09-.21.2-.32.31a.87.87,0,0,1-1.13.17,10.26,10.26,0,0,0-1.19-.49.87.87,0,0,1-.68-.93V7.42A.82.82,0,0,0,14,6.6a.81.81,0,0,0-.82.81c0,.15,0,.31,0,.46a.82.82,0,0,1-.55.78l-1.46.6a.79.79,0,0,1-.89-.14c-.12-.1-.22-.25-.35-.34S9.55,8.57,9.45,8.52Z"/><path class="cls-1" d="M24.7,19.14l-.63.27A.85.85,0,0,1,22.94,19a.83.83,0,0,1,.5-1.1c.77-.33,1.55-.66,2.34-1a.82.82,0,0,1,1.16.47c.33.78.66,1.56,1,2.34a.81.81,0,0,1-.41,1.12.83.83,0,0,1-1.1-.48l-.18-.43c-.47.78-.88,1.61-1.41,2.35a13,13,0,0,1-9.36,5.62A13.34,13.34,0,0,1,1.05,18.57C1,18.38.93,18.19.88,18a.82.82,0,0,1,.58-1,.8.8,0,0,1,1,.6,11.85,11.85,0,0,0,2,4.13,11.52,11.52,0,0,0,8.47,4.62,11.7,11.7,0,0,0,11.58-6.78C24.58,19.43,24.62,19.32,24.7,19.14Z"/><path class="cls-1" d="M16.47,14A2.47,2.47,0,1,1,14,11.54,2.48,2.48,0,0,1,16.47,14Zm-1.64,0a.83.83,0,0,0-.81-.83.82.82,0,0,0-.83.79.83.83,0,0,0,.81.85A.84.84,0,0,0,14.83,14Z"/></g></g></svg>