<svg xmlns="http://www.w3.org/2000/svg" viewBox="0 0 24.3 24.27"><defs><style>.cls-1{stroke:#000;stroke-miterlimit:10;stroke-width:0.5px;}</style></defs><g id="Capa_2" data-name="Capa 2"><g id="Capa_1-2" data-name="Capa 1"><path class="cls-1" d="M20,5V7.18a.66.66,0,0,1-.62.73.65.65,0,0,1-.64-.73v-3c0-1,.12-1.12,1.15-1.1s1.83,0,2.75,0H23a.63.63,0,0,1,0,1.25H21.2c.07.11.13.18.19.26A11.9,11.9,0,0,1,13.55,24,11.89,11.89,0,0,1,10,.46,18.26,18.26,0,0,1,12.05.25a.61.61,0,0,1,.72.55.62.62,0,0,1-.69.7,9.57,9.57,0,0,0-3.36.57,10.33,10.33,0,0,0-7,8.11,10.63,10.63,0,0,0,20.82,4.25,10.43,10.43,0,0,0-2.17-9.06Z"/><path class="cls-1" d="M12.14,19h-4a2,2,0,0,1-2.2-2.2V15.49a1.23,1.23,0,0,1,.72-1.21,11.67,11.67,0,0,1,11.08,0,1.21,1.21,0,0,1,.71,1.18c0,.49,0,1,0,1.46A2,2,0,0,1,16.29,19Zm0-1.26h4.18a.76.76,0,0,0,.84-.83c0-.42,0-.83,0-1.25a.38.38,0,0,0-.24-.4A10.45,10.45,0,0,0,13,14.19a10.31,10.31,0,0,0-5.69,1.15.41.41,0,0,0-.18.3c0,.41,0,.83,0,1.25a.76.76,0,0,0,.87.88Z"/><path class="cls-1" d="M8.72,8.76a3.44,3.44,0,1,1,6.87,0,3.44,3.44,0,1,1-6.87,0Zm3.44-2.25a2.26,2.26,0,1,0,2.19,2.25A2.24,2.24,0,0,0,12.16,6.51Z"/></g></g></svg>