<svg xmlns="http://www.w3.org/2000/svg" viewBox="0 0 128.49 128.49"><defs><style>.cls-1{fill:#fff;}</style></defs><g id="Capa_2" data-name="Capa 2"><g id="Capa_1-2" data-name="Capa 1"><path class="cls-1" d="M71.67,102.72,107.3,87.64l.35.63a3.12,3.12,0,0,1-.39.25l-5.73,2.42L64.16,106.77a1.54,1.54,0,0,1-1.34,0Q42.48,97.82,22.14,88.93l-1.28-.57.19-.58.13-.06a.12.12,0,0,1,.08,0l34,14.83c0-.31.08-.57.09-.82l.51-13.63q.3-7.65.61-15.28c.15-3.67.29-7.34.44-11q.31-7.66.62-15.35c.15-3.82.3-7.64.47-11.45a1.3,1.3,0,0,0-.39-1c-.61-.63-1.2-1.27-1.8-1.91a4.25,4.25,0,0,1-.35-.39A.75.75,0,0,1,56,30.5a2.24,2.24,0,0,1,.52,0H70.44c.45,0,.94-.05,1.16.46s-.15.84-.46,1.17c-.62.65-1.21,1.33-1.84,2A1.12,1.12,0,0,0,69,35c.11,2.62.21,5.25.31,7.87.07,1.64.16,3.29.23,4.94L70,61.45q.38,9.54.76,19.1.28,7.41.59,14.82C71.46,97.77,71.56,100.16,71.67,102.72ZM57.81,32c.46.5.81.91,1.21,1.28a1.58,1.58,0,0,1,.49,1.34c-.14,3.24-.25,6.49-.37,9.74Q59,48.17,58.83,52q-.34,8.65-.7,17.3c-.12,3-.23,6-.34,9q-.36,9-.73,18.05c-.09,2.29-.19,4.59-.3,6.94L63.08,106V35.7c0-.22,0-.45,0-.67a.64.64,0,0,1,.09-.22h.68v65.64c0,1.81,0,3.62,0,5.57l6.3-2.68c-.13-2.94-.25-5.81-.36-8.68q-.31-7.71-.62-15.43c-.15-3.69-.29-7.39-.44-11.08q-.3-7.68-.61-15.35l-.51-13.64c-.06-1.47-.1-2.94-.21-4.41A1.68,1.68,0,0,1,68,33.28c.39-.37.74-.77,1.19-1.25Z"/><path class="cls-1" d="M64.23,128.49A64.22,64.22,0,0,1,0,64.25,64.29,64.29,0,0,1,65,0a64.24,64.24,0,0,1,44.71,109.61,63.75,63.75,0,0,1-45.45,18.88Zm0-126.93A62.73,62.73,0,0,0,1.56,64.25h0a62.67,62.67,0,0,0,62.67,62.66h0A62.64,62.64,0,0,0,108.76,20.16,62.29,62.29,0,0,0,65,1.57Z"/><path class="cls-1" d="M63.46,115.36c-.27-.1-.55-.2-.82-.32L50,109.49,18.47,95.71a3.4,3.4,0,0,1-.54-.27.71.71,0,0,1-.24-.93.73.73,0,0,1,.87-.39,4.86,4.86,0,0,1,.63.25l43.54,19.09a1.64,1.64,0,0,0,1.48,0l45-19.08a7.07,7.07,0,0,1,.69-.27.72.72,0,0,1,.86.42.7.7,0,0,1-.27.92,3,3,0,0,1-.54.25L64.19,115.08C64,115.18,63.73,115.26,63.46,115.36Z"/><path class="cls-1" d="M70.51,29.43h-14c0-.28,0-.54,0-.81,0-3.09,0-6.19,0-9.29a1.41,1.41,0,0,1,.7-1.3c1.91-1.26,3.81-2.56,5.71-3.85.63-.43.72-.43,1.33,0,1.9,1.3,3.78,2.61,5.68,3.9a1.46,1.46,0,0,1,.73,1.36c0,3.07,0,6.15,0,9.22C70.56,28.9,70.53,29.14,70.51,29.43ZM69,20.33a22.61,22.61,0,0,0-4.75,0v8.12H69Zm-6.23,8.18V20.3H58v8.21ZM63.17,15c-1.93,1.38-3.78,2.72-5.76,4.16h5.76Z"/><path class="cls-1" d="M20.85,90.25l.28-.69.79.31,40.73,17.86a1.93,1.93,0,0,0,1.69,0q21.06-9,42.13-17.85l.87-.34.3.66c-.29.14-.52.26-.77.37q-21.21,9-42.4,18a2.15,2.15,0,0,1-1.9,0q-20.52-9-41.08-18Z"/><path class="cls-1" d="M20.83,92.17l.31-.69.73.3q20.37,8.91,40.74,17.86a2.13,2.13,0,0,0,1.83,0q21-8.92,42-17.8l.9-.36.33.68-.74.33L64.23,110.57a1.67,1.67,0,0,1-1.48,0q-20.62-9.06-41.28-18.09Z"/><path class="cls-1" d="M107.3,93.42a2.34,2.34,0,0,1,.19.26c.05.11.08.23.14.39l-.69.33q-21.36,9-42.69,18.08a1.73,1.73,0,0,1-1.49,0L21.53,94.4l-.67-.31.23-.65a2.39,2.39,0,0,1,.46.11L27,96l35.81,15.69a1.51,1.51,0,0,0,1.33,0q21.19-9,42.42-18C106.82,93.59,107.05,93.51,107.3,93.42Z"/></g></g></svg>