<svg xmlns="http://www.w3.org/2000/svg" viewBox="0 0 186.08 70.07"><defs><style>.cls-1{fill:#294372;}.cls-2{fill:none;stroke:#294372;stroke-miterlimit:10;}</style></defs><g id="Capa_2" data-name="Capa 2"><g id="Capa_1-2" data-name="Capa 1"><path class="cls-1" d="M3.18,63.37c-1,0-1.59.38-1.59,1,0,1.94,4.2.93,4.19,3.64,0,1.24-1.1,2-2.7,2A4.26,4.26,0,0,1,.22,68.93l.38-.74a3.79,3.79,0,0,0,2.49,1c1.08,0,1.75-.44,1.75-1.17,0-2-4.19-.93-4.19-3.61,0-1.18,1-1.93,2.58-1.93a4.41,4.41,0,0,1,2.37.7L5.24,64A4,4,0,0,0,3.18,63.37Z"/><path class="cls-1" d="M14.65,66.3a3.81,3.81,0,0,1-3.91,3.77,3.77,3.77,0,1,1,0-7.53A3.81,3.81,0,0,1,14.65,66.3Zm-7,0a3,3,0,0,0,6.08,0,3,3,0,0,0-6.08,0Z"/><path class="cls-1" d="M21,62.57v.79H17.06V66h3.49v.78H17.06V70H16.2V62.57Z"/><path class="cls-1" d="M26.93,62.57v.79H24.48V70h-.85V63.36H21.2v-.79Z"/><path class="cls-1" d="M28,62.57l2,6.51,2-6.51H33l2,6.51,2-6.51h.89L35.4,70h-.87l-2-6.33-2,6.33h-.88L27.1,62.57Z"/><path class="cls-1" d="M43.24,68.13H39.18L38.34,70h-.9l3.35-7.47h.88L45,70h-.93Zm-.34-.79-1.7-3.85-1.67,3.85Z"/><path class="cls-1" d="M51.07,70l-1.56-2.39-.49,0H47V70h-.86V62.57H49c1.87,0,2.95.91,2.95,2.5a2.34,2.34,0,0,1-1.69,2.42L52.05,70Zm-2-3.16c1.36,0,2.13-.61,2.13-1.78s-.77-1.74-2.13-1.74H47v3.52Z"/><path class="cls-1" d="M59,62.57v.79H54.75v2.5h3.77v.78H54.75v2.61h4.36V70H53.9V62.57Z"/><path class="cls-1" d="M70.91,66.3A3.74,3.74,0,0,1,67,70h-3V62.57h3A3.72,3.72,0,0,1,70.91,66.3Zm-.86,0a2.94,2.94,0,0,0-3-3H64.9v5.89h2.18A2.91,2.91,0,0,0,70.05,66.31Z"/><path class="cls-1" d="M77.53,62.57v.79H73.32v2.5h3.77v.78H73.32v2.61h4.35V70H72.46V62.57Z"/><path class="cls-1" d="M87.68,62.57v.79H83.46v2.5h3.77v.78H83.46v2.61h4.36V70H82.61V62.57Z"/><path class="cls-1" d="M96.42,66.3A3.73,3.73,0,0,1,92.55,70h-3V62.57h3A3.71,3.71,0,0,1,96.42,66.3Zm-.86,0a2.94,2.94,0,0,0-3-3H90.41v5.89h2.18A2.91,2.91,0,0,0,95.56,66.31Z"/><path class="cls-1" d="M101,69.29A2.11,2.11,0,0,0,103.23,67V62.57h.85V67a3.14,3.14,0,0,1-6.28,0V62.57h.86V67A2.12,2.12,0,0,0,101,69.29Z"/><path class="cls-1" d="M109.37,63.32a3,3,0,1,0,0,5.95,3.25,3.25,0,0,0,2.21-.9l.52.57a4.11,4.11,0,0,1-2.77,1.13,3.77,3.77,0,1,1,0-7.53,4,4,0,0,1,2.73,1.09l-.51.62A3.21,3.21,0,0,0,109.37,63.32Z"/><path class="cls-1" d="M118.32,68.13h-4.06L113.42,70h-.9l3.35-7.47h.88L120.1,70h-.93Zm-.34-.79-1.7-3.85-1.67,3.85Z"/><path class="cls-1" d="M124.29,63.32a3,3,0,1,0,0,5.95,3.25,3.25,0,0,0,2.21-.9l.52.57a4.13,4.13,0,0,1-2.78,1.13,3.77,3.77,0,1,1,0-7.53A4.06,4.06,0,0,1,127,63.63l-.51.62A3.21,3.21,0,0,0,124.29,63.32Z"/><path class="cls-1" d="M129.41,62.57V70h-.86V62.57Z"/><path class="cls-1" d="M138.79,66.3a3.92,3.92,0,1,1-3.91-3.76A3.81,3.81,0,0,1,138.79,66.3Zm-7,0a3,3,0,0,0,6.08,0,3,3,0,0,0-6.08,0Zm4.58-5.74-1.32,1.06h-.81l1.29-1.45Z"/><path class="cls-1" d="M141.23,62.57l4.48,6.07V62.57h.85V70h-.88L141.2,64V70h-.86V62.57Z"/><path class="cls-1" d="M152.91,62.57l4.49,6.07V62.57h.84V70h-.88L152.88,64V70H152V62.57Z"/><path class="cls-1" d="M165.23,68.13h-4.07L160.33,70h-.91l3.35-7.47h.89L167,70h-.93Zm-.34-.79-1.7-3.85-1.68,3.85Z"/><path class="cls-1" d="M167.53,62.57l2.57,6.51,2.59-6.51h.89L170.53,70h-.89l-3-7.47Z"/><path class="cls-1" d="M179,68.13h-4.07L174.1,70h-.91l3.36-7.47h.88L180.77,70h-.92Zm-.34-.79L177,63.49l-1.67,3.85Z"/><path class="cls-1" d="M182.8,62.57v6.68h3.28V70h-4.14V62.57Z"/><line class="cls-2" x1="0.22" y1="55.26" x2="186.08" y2="55.26"/><path class="cls-1" d="M27,38.62,40.34,33l.13.24-.14.09-2.16.91-14,6a.55.55,0,0,1-.5,0L8.33,33.43l-.49-.21L7.92,33l0,0H8l12.78,5.57a1.88,1.88,0,0,0,0-.31c.06-1.71.13-3.41.19-5.12.08-1.92.16-3.83.23-5.75.06-1.38.11-2.75.17-4.13.07-1.93.15-3.85.23-5.78.05-1.43.11-2.87.17-4.3a.48.48,0,0,0-.14-.38c-.23-.23-.45-.48-.68-.72l-.13-.14a.28.28,0,0,1,.19-.45.66.66,0,0,1,.2,0h5.24c.17,0,.36,0,.44.17s-.06.32-.17.44-.46.5-.7.74a.42.42,0,0,0-.12.35c0,1,.07,2,.11,3L26.13,18c.06,1.71.13,3.41.19,5.12.1,2.4.19,4.79.29,7.18.07,1.86.14,3.72.22,5.58C26.87,36.76,26.91,37.66,27,38.62ZM21.73,12c.18.19.31.35.46.48a.63.63,0,0,1,.19.51c-.06,1.22-.1,2.44-.15,3.66,0,.95-.07,1.89-.11,2.84Q22,22.78,21.86,26c-.05,1.12-.09,2.25-.13,3.38q-.14,3.39-.28,6.78c0,.86-.07,1.73-.11,2.61l2.38,1V39.5q0-13,0-26.08c0-.08,0-.17,0-.25s0-.05,0-.08H24V37.77c0,.68,0,1.36,0,2.09l2.37-1c-.05-1.1-.09-2.18-.14-3.26-.08-1.93-.15-3.87-.23-5.8-.05-1.39-.11-2.78-.16-4.17-.08-1.92-.16-3.85-.23-5.77-.07-1.71-.13-3.42-.2-5.13,0-.55,0-1.1-.07-1.66a.63.63,0,0,1,.2-.55c.15-.14.28-.29.45-.47Z"/><path class="cls-1" d="M24.15,48.31A24.16,24.16,0,0,1,0,24.16,24.16,24.16,0,0,1,24.44,0,24.15,24.15,0,0,1,41.25,41.21a24,24,0,0,1-17.09,7.1Zm0-47.72A23.57,23.57,0,0,0,.59,24.16h0A23.56,23.56,0,0,0,24.15,47.72h0A23.55,23.55,0,0,0,40.89,7.58a23.39,23.39,0,0,0-16.46-7Z"/><path class="cls-1" d="M171.38,22.73c0-2.06,0-4.13,0-6.19V4.09C172,3.91,183.85,3.84,185,4c.16.59.17,41,0,41.77-.23,0-.48,0-.73,0-3.34,0-6.69,0-10,0a1.43,1.43,0,0,1-1.22-.58q-7.37-8.85-14.77-17.68c-.17-.21-.35-.41-.56-.65a1.24,1.24,0,0,0-.17.93q0,8.45,0,16.88v.95c-.67.17-12.76.2-13.63.05V4a6.12,6.12,0,0,1,.63-.06c3.45,0,6.9,0,10.34,0a1.28,1.28,0,0,1,1.06.59q7.35,8.82,14.72,17.63c.19.22.39.43.59.65Z"/><path class="cls-1" d="M103.45,45.69V4h34a25.7,25.7,0,0,1,.05,2.63c0,.86,0,1.72,0,2.59v5.3c-1.75.1-3.42,0-5.08,0s-3.35,0-5,0H117.31v4.92c.8.09,1.63,0,2.45,0h15.17V29.59H117.28c-.06,1.89,0,3.69,0,5.58.41,0,.76,0,1.1,0h19.74a97,97,0,0,1,.1,10.45l0,.06a.11.11,0,0,1-.07,0,1.67,1.67,0,0,1-.29.06H104a2.34,2.34,0,0,1-.38,0A.88.88,0,0,1,103.45,45.69Z"/><path class="cls-1" d="M61.36,42.51l4.51-10.23.56.27A28.9,28.9,0,0,0,78,36a15.85,15.85,0,0,0,5.14-.26,4.44,4.44,0,0,0,1.07-.4,1.72,1.72,0,0,0,.26-3,4.25,4.25,0,0,0-1.32-.72c-1.51-.44-3-.86-4.55-1.2a57.39,57.39,0,0,1-8.14-2.15,16.22,16.22,0,0,1-4.5-2.48,10.12,10.12,0,0,1-3.84-7.25c-.52-5.91,2-10.17,7.15-13A21.81,21.81,0,0,1,77.06,3.2a35.17,35.17,0,0,1,7.81-.14A31.93,31.93,0,0,1,96.68,6.21l.41.22a1.94,1.94,0,0,1,.2.17C95.94,10,94.52,13.32,93.1,16.74l-1.24-.57a26,26,0,0,0-8.8-2.46,13.15,13.15,0,0,0-4.68.26,5,5,0,0,0-1.58.7,1.81,1.81,0,0,0,.11,3.19A10.45,10.45,0,0,0,80.19,19c2.37.52,4.76,1,7.12,1.54a24.05,24.05,0,0,1,5.5,2,13.62,13.62,0,0,1,3,2.05,10.07,10.07,0,0,1,3.26,6.91,12.31,12.31,0,0,1-4.42,10.81A17.21,17.21,0,0,1,88,45.74a32.22,32.22,0,0,1-10.84,1,44.39,44.39,0,0,1-9.5-1.59A28.46,28.46,0,0,1,62.19,43Z"/><path class="cls-1" d="M23.86,43.37c-.1,0-.21-.07-.31-.12l-4.77-2.09L6.94,36l-.2-.1a.27.27,0,0,1-.09-.35A.29.29,0,0,1,7,35.38l.23.1,16.38,7.18a.63.63,0,0,0,.55,0q8.46-3.6,16.93-7.17l.26-.11a.27.27,0,0,1,.32.16.25.25,0,0,1-.1.34.75.75,0,0,1-.2.1L24.13,43.27Z"/><path class="cls-1" d="M26.51,11.07H21.23c0-.11,0-.21,0-.31,0-1.16,0-2.33,0-3.49a.53.53,0,0,1,.26-.49l2.15-1.45c.24-.16.27-.16.5,0L26.26,6.8a.58.58,0,0,1,.27.51c0,1.15,0,2.31,0,3.46C26.53,10.87,26.52,11,26.51,11.07Zm-.58-3.43a8.8,8.8,0,0,0-1.79,0v3.05h1.79Zm-2.35,3.08V7.63H21.82v3.09Zm.17-5.07L21.58,7.22h2.17Z"/><path class="cls-1" d="M7.84,33.93l.1-.26.3.12L23.55,40.5a.72.72,0,0,0,.64,0L40,33.8l.32-.12.12.24-.29.14L24.24,40.82a.84.84,0,0,1-.71,0Q15.8,37.41,8.08,34.05Z"/><path class="cls-1" d="M7.83,34.65,8,34.39l.27.11,15.32,6.72a.8.8,0,0,0,.69,0Q32.12,37.86,40,34.53l.34-.14.12.26-.28.12-16,6.8a.61.61,0,0,1-.56,0L8.07,34.76Z"/><path class="cls-1" d="M40.34,35.12a.46.46,0,0,1,.07.1,1.31,1.31,0,0,1,.05.15l-.26.12-16.05,6.8a.63.63,0,0,1-.55,0L8.09,35.49l-.25-.12.09-.24.17,0,2.06.9L23.63,42a.58.58,0,0,0,.5,0l16-6.76Z"/></g></g></svg>